<svg width="365" height="352" viewBox="0 0 365 352" fill="none" xmlns="http://www.w3.org/2000/svg">
<g clip-path="url(#clip0_102_2)">
<path d="M48.4596 54.1688C50.9508 47.6603 58.2384 44.401 64.7376 46.8887C68.5489 48.3475 71.2286 51.4622 72.3023 55.0994C80.7603 48.5811 89.84 43.6415 99.382 40.0566C97.1594 35.289 92.3784 30.598 83.8373 25.9422C56.331 10.9446 36.0289 19.599 25.2942 37.5037C14.9358 54.7805 17.284 78.4916 37.5622 92.1842C43.3217 84.0185 49.3123 76.7989 55.4985 70.3609C49.1491 67.7925 45.9973 60.6017 48.4596 54.1688Z" fill="#D0B698" stroke="black" stroke-width="6" stroke-miterlimit="10" stroke-linecap="round" stroke-linejoin="round"/>
<path d="M64.7377 46.8887C58.2385 44.401 50.9509 47.6603 48.4597 54.1688C45.9974 60.6017 49.1492 67.7925 55.4989 70.36C59.911 65.7677 64.4217 61.5698 69.0225 57.7211C70.1042 56.8171 71.2001 55.9484 72.3028 55.0984C71.2287 51.4622 68.5481 48.3471 64.7377 46.8887Z" fill="black"/>
<path d="M326.242 30.4072C315.352 12.5955 294.976 4.11858 267.602 19.3541C258.111 24.6363 253.309 29.9203 251.522 35.2797C260.081 38.289 268.52 42.2963 276.96 47.3324C277.37 47.5766 277.768 47.8296 278.173 48.0765C279.179 44.3564 281.856 41.1413 285.714 39.626C292.191 37.082 299.507 40.2779 302.055 46.7645C304.288 52.4507 302.115 58.7759 297.181 61.9643C304.19 68.1104 310.677 75.1415 316.896 83.3815C334.758 69.3281 336.307 46.8681 326.242 30.4072Z" fill="#D0B698" stroke="black" stroke-width="6" stroke-miterlimit="10" stroke-linecap="round" stroke-linejoin="round"/>
<path d="M302.055 46.7645C299.507 40.2779 292.191 37.082 285.714 39.626C281.855 41.1416 279.179 44.3564 278.173 48.0765C284.975 52.2222 291.268 56.778 297.181 61.9643C302.115 58.7759 304.288 52.4507 302.055 46.7645Z" fill="black"/>
<path d="M242.748 193.552C237.884 192.108 233.132 191.589 228.616 191.994C217.689 192.98 207.481 200.096 202.61 209.919C202.401 210.341 202.365 210.825 202.472 211.284C203.684 216.495 203.028 222.602 201.718 227.309V227.309C201.314 228.771 202.845 230.424 204.36 230.353C204.637 230.34 204.926 230.332 205.23 230.328C215.724 230.241 226.71 233.574 236.265 239.77C241.463 243.14 245.498 247.118 248.177 251.356C249.183 252.948 251.869 252.839 252.415 251.036C256.594 237.232 259.053 221.852 260.179 204.049V204.049C260.212 203.595 260.004 203.152 259.66 202.853C254.766 198.605 248.958 195.395 242.748 193.552" fill="#6AD7E4"/>
<path d="M196.932 208.757C195.767 206.772 194.092 205.546 191.818 204.996C191.752 204.981 191.686 204.966 191.62 204.953C190.965 204.824 190.305 205.345 189.637 205.345V205.345C189.523 205.345 189.401 205.323 189.288 205.284C188.967 205.175 188.661 205.05 188.364 204.909C188.021 204.746 187.646 204.651 187.269 204.688C186.016 204.811 184.801 205.105 183.681 205.585C180.685 206.879 178.839 209.336 177.695 211.773C177.199 212.828 177.865 214.018 178.937 214.476C180.961 215.342 182.717 216.602 184.135 217.723C187.547 220.424 189.742 222.976 191.033 225.756C191.1 225.897 191.689 227.177 192.305 228.955C192.947 230.807 195.784 231.228 196.469 229.391C196.863 228.334 197.216 227.25 197.525 226.14C198.952 221.013 199.654 213.382 196.932 208.757" fill="#6AD7E4"/>
<path d="M178.127 157.552C175.605 168.32 177.394 180.986 183.437 195.201C184.068 196.681 184.795 198.198 185.686 199.532C186.077 200.117 186.778 200.386 187.48 200.337C189.249 200.214 191.055 200.336 192.835 200.764C196.273 201.589 198.913 203.535 200.684 206.549V206.549C200.972 207.042 201.659 207.085 201.954 206.597C207.535 197.353 217.652 190.797 228.424 189.826C233.206 189.385 238.232 189.944 243.368 191.466C248.189 192.896 252.786 195.107 256.929 197.967C258.316 198.924 260.278 197.982 260.182 196.299C259.036 176.115 248.405 157.303 230.213 143.804C224.886 139.848 219.199 136.576 213.319 134.003C213.15 133.928 212.967 133.979 212.796 134.049V134.049C212.661 134.105 212.521 134.131 212.381 134.131C211.954 134.131 211.548 133.878 211.378 133.455V133.455C211.295 133.265 211.153 133.11 210.96 133.033C209.743 132.542 208.517 132.081 207.285 131.65C206.984 131.545 206.665 131.514 206.35 131.567C194.249 133.594 180.913 145.654 178.127 157.552" fill="#6AD7E4"/>
<path d="M262.583 267.567C258.518 267.887 254.559 268.312 250.943 269.413C250.414 269.574 249.988 269.965 249.757 270.468C247.447 275.476 244.844 280.298 241.921 284.983C240.628 287.056 246.538 294.519 248.945 294.101C251.933 293.583 255.097 293.309 258.438 293.309C266.651 293.309 273.742 295.016 279.814 297.894C279.978 297.972 280.153 298.028 280.332 298.061C299.975 301.568 317.123 306.281 335.555 290.399C337.017 289.136 338.389 287.733 339.705 286.247C340.427 285.432 340.328 284.185 339.485 283.498C328.929 274.886 316.49 270.845 307.191 268.954C291.907 265.852 276.065 266.515 262.583 267.567" fill="#6AD7E4"/>
<path d="M348.177 198.683C341.715 195.158 334.508 192.95 327.069 190.816C320.411 188.91 314.333 187.33 308.264 187.431C302.688 187.513 297.108 189.027 292.313 190.437C282.099 193.438 271.662 197.295 264.511 205.079V205.079C264.487 205.103 264.466 205.129 264.464 205.163C262.896 229.023 258.957 248.637 251.74 265.952C251.737 265.958 251.734 265.964 251.732 265.97V265.97C251.73 265.976 251.726 265.982 251.724 265.988C251.712 266.016 251.7 266.044 251.688 266.073C251.524 266.468 251.884 266.887 252.301 266.789C255.529 266.024 258.935 265.67 262.413 265.398C276.047 264.325 292.073 263.657 307.623 266.821C317.148 268.757 329.889 272.899 340.761 281.728C341.649 282.449 342.964 282.33 343.652 281.417C344.927 279.725 346.165 277.979 347.381 276.203C347.443 276.112 347.498 276.016 347.544 275.916C356.347 256.891 361.947 236.093 363.645 214.175C363.674 213.808 363.6 213.439 363.425 213.115C359.589 206.005 353.068 201.352 348.177 198.683" fill="#6AD7E4"/>
<path d="M191.011 239.242C190.989 239.011 191.016 238.771 191.146 238.557C192.499 236.345 190.741 230.276 189.061 226.672C187.918 224.215 185.924 221.912 182.782 219.429C181.4 218.332 179.658 217.118 177.704 216.362C176.94 216.066 176.124 216.565 175.994 217.374V217.374V217.374C175.894 218.005 175.741 218.667 175.973 219.262C177.7 223.697 177.975 228.692 176.604 233.273C176.046 235.141 175.208 237.021 174.048 239.015C170.217 245.608 164.362 250.699 157.564 253.356V253.356C156.785 253.66 156.944 254.975 157.779 254.947C161.99 254.806 166.207 254.147 170.295 252.933C179.008 250.341 186.064 245.634 191.011 239.242" fill="#6AD7E4"/>
<path d="M89.3615 261.93C100.746 254.984 107.359 244.722 109.018 231.428V231.428C109.046 231.222 109.067 231.011 108.973 230.826C104.325 221.73 102.285 211.263 103.034 199.932C103.143 198.287 101.353 197.098 99.8673 197.814C93.1507 201.048 85.4168 203.083 77.0176 203.748C74.8029 203.923 72.5515 204.015 70.2378 204.015C62.571 204.015 54.1927 203.037 43.9805 200.995C31.8032 198.561 15.3034 194.061 4.53452 182.792C3.28011 181.479 0.908818 182.151 0.745458 183.96C0.265075 189.277 0 194.658 0 200.101C0 222.767 4.15461 244.454 11.7261 264.463C11.9313 265.005 12.3585 265.428 12.9056 265.62C35.3141 273.474 68.3955 274.724 89.3615 261.93" fill="#6AD7E4"/>
<path d="M245.423 269.369C246.787 266.455 248.054 263.475 249.22 260.422C249.354 260.071 249.387 259.686 249.3 259.32C247.134 250.149 238.217 243.633 235.078 241.598C225.881 235.634 215.239 232.326 205.252 232.505C202.088 232.542 200.922 233.018 199.216 234.426C199.006 234.599 198.838 234.818 198.716 235.06C195.481 241.475 190.672 246.889 184.63 250.968C183.365 251.822 183.339 253.747 184.582 254.632C191.374 259.465 196.896 266.147 200.222 273.762C205.239 285.228 205.846 299.465 202.037 316.084C201.874 316.787 201.702 317.501 201.516 318.221C201.024 320.134 203.257 321.766 204.75 320.473V320.473C222.388 305.219 235.022 290.072 243.795 272.701C243.946 272.402 243.779 272.057 243.595 271.777V271.777C243.259 271.28 243.394 270.604 243.896 270.268C244.393 269.936 244.908 269.652 245.423 269.369" fill="#6AD7E4"/>
<path d="M156.77 251.328C163.114 248.849 168.581 244.089 172.167 237.924C173.24 236.079 174.008 234.351 174.519 232.649C175.833 228.255 175.466 223.433 173.617 219.257C173.597 219.212 173.555 219.197 173.507 219.189V219.189C172.32 219.002 171.508 217.889 171.692 216.702V216.702C171.756 216.322 171.696 215.932 171.481 215.612C171.39 215.477 171.296 215.344 171.194 215.214C170.823 214.743 170.906 214.058 171.377 213.687V213.687C171.844 213.328 172.54 213.056 172.724 212.497C172.76 212.388 172.797 212.28 172.834 212.172C173.229 211.027 172.115 209.72 170.924 209.944C169.412 210.229 167.846 210.38 166.225 210.38C162.04 210.38 157.533 209.477 152.807 207.671C137.682 201.885 123.539 188.443 116.54 176.719C115.672 175.265 113.467 175.312 112.836 176.883C111.044 181.343 109.643 185.943 108.691 190.609C108.592 191.09 108.761 191.605 108.688 192.091C108.686 192.103 108.684 192.115 108.681 192.127C108.589 192.623 108.229 193.058 108.148 193.556C104.866 213.749 110.572 231.465 124.334 243.57C128.768 247.466 134.059 250.42 139.781 252.348C145.265 253.793 151.288 253.47 156.77 251.328" fill="#6AD7E4"/>
<path d="M153.584 205.638C162.105 208.893 169.796 209.011 175.961 206.055C176.205 205.937 176.418 205.765 176.597 205.562C178.117 203.834 179.911 202.47 181.962 201.589V201.589C182.93 201.176 183.387 200.004 182.882 199.081C182.341 198.09 181.864 197.063 181.434 196.052C175.204 181.405 173.38 168.285 176.011 157.055C178.238 147.535 186.828 137.909 196.434 132.801C198.196 131.864 198.048 128.972 196.09 128.584C182.794 125.953 169.265 126.754 157.102 131.291C140.206 137.589 125.216 152.087 116.181 169.625C115.914 170.144 115.889 170.752 116.13 171.284C121.547 183.245 137.214 199.376 153.584 205.638" fill="#6AD7E4"/>
<path d="M199.912 315.591C203.62 299.443 203.053 285.665 198.228 274.631C194.595 266.316 188.202 259.173 180.398 254.513C179.828 254.173 179.125 254.16 178.524 254.443C176.31 255.486 173.977 256.38 171.534 257.104C162.747 259.72 153.401 259.977 144.625 258.138C143.01 257.8 141.558 259.387 142.056 260.96C148.374 280.916 145.66 304.479 134.278 326.577C129.993 334.902 125.589 340.892 120.419 345.439V345.439C118.93 346.748 119.99 349.79 121.96 349.56C149.05 346.4 176.992 338.703 195.674 327.075C195.977 326.886 196.221 326.62 196.378 326.299C198.07 322.855 199.112 319.09 199.912 315.591" fill="#6AD7E4"/>
<path d="M37.5708 103.843C39.6498 117.504 51.9222 128.795 59.0532 134.31C69.2012 142.159 81.5635 147.033 92.3184 150.763C100.807 153.705 110.498 156.605 119.704 154.844C120.176 154.754 120.592 154.482 120.883 154.099C129.209 143.146 139.822 134.215 151.48 128.919C153.017 128.221 153.203 125.994 151.83 125.011C145.458 120.447 140.843 114.484 136.128 106.945C130.22 97.5036 126.045 86.3211 123.366 72.7563C122.13 66.4997 120.896 58.2797 122.345 50.2037C123.072 46.1413 125.139 37.2876 128.11 29.8125C128.756 28.189 127.241 26.4404 125.58 26.9824C90.5287 38.4186 60.1706 60.1958 38.0793 88.7188C37.9464 88.8904 37.8417 89.0815 37.7766 89.2885C36.3305 93.8875 37.1161 100.857 37.5708 103.843Z" fill="#6AD7E4"/>
<path d="M291.217 117.801C273.148 123.359 257.281 136.423 248.203 153.015C247.815 153.725 247.914 154.596 248.421 155.225C258.331 167.502 263.941 181.942 264.565 197.1C264.639 198.886 266.883 199.902 268.318 198.836C275.157 193.756 283.492 190.764 291.697 188.351C296.628 186.898 302.382 185.341 308.229 185.253C314.66 185.214 320.843 186.772 327.671 188.726C335.228 190.89 342.562 193.137 349.22 196.772C353.516 199.117 357.194 201.907 360.158 205.029C361.486 206.429 364.126 205.63 364.165 203.701C364.19 202.504 364.203 201.303 364.203 200.101C364.203 172.784 358.153 146.89 347.376 123.635C347.192 123.238 346.881 122.912 346.491 122.713C329.674 114.129 309.249 112.26 291.217 117.801" fill="#6AD7E4"/>
<path d="M160.496 346.809C160.551 346.809 160.604 346.813 160.658 346.816C160.703 346.818 160.746 346.804 160.783 346.778V346.778C160.988 346.637 160.849 346.32 160.609 346.387C160.552 346.403 160.496 346.419 160.439 346.435C160.216 346.497 160.265 346.809 160.496 346.809V346.809Z" fill="#6AD7E4"/>
<path d="M262.91 43.5501C258.931 43.9951 254.712 45.0684 250.379 46.7307C234.28 52.9001 220.597 66.0416 213.778 81.8795C207.626 96.1723 206.919 113.011 211.672 127.872C211.852 128.434 212.28 128.88 212.826 129.102C219.801 131.932 226.545 135.654 232.809 140.305C236.96 143.39 240.723 146.747 244.106 150.319C245.062 151.33 246.743 151.134 247.45 149.936C256.952 133.823 272.723 121.215 290.576 115.724C306.641 110.779 324.546 111.556 340.298 117.583C342.067 118.26 343.848 116.403 342.958 114.73C327.224 85.1465 303.573 60.4353 274.823 43.3918C274.525 43.2149 274.186 43.1193 273.839 43.1164C270.101 43.0854 265.242 43.2919 262.91 43.5501" fill="#6AD7E4"/>
<path d="M125.502 72.3375C128.129 85.6361 132.208 96.5786 137.973 105.789C143.693 114.932 148.955 121.375 157.433 125.96C157.905 126.215 158.461 126.257 158.973 126.095C173.685 121.461 189.996 121.706 205.537 126.475C207.112 126.959 208.657 125.483 208.265 123.882C204.79 109.698 205.961 94.5309 211.779 81.02C218.93 64.4099 232.718 51.1723 249.598 44.6976C254.105 42.9654 258.503 41.8528 262.67 41.386C262.844 41.3669 263.032 41.3481 263.232 41.3295C265.264 41.1408 265.908 38.4159 264.086 37.4952C239.443 25.0407 211.6 18 182.102 18C165.31 18 149.071 20.319 133.634 24.5757C133.122 24.7167 132.688 25.0556 132.44 25.5243C128.619 32.7457 125.554 44.6356 124.487 50.5833C123.103 58.3016 124.302 66.2642 125.502 72.3375Z" fill="#6AD7E4"/>
<path d="M44.408 198.862C57.495 201.48 67.5008 202.317 76.8452 201.58C86.747 200.796 95.6995 198.08 103.032 193.678C103.527 193.381 103.858 192.875 103.943 192.303C103.997 191.941 104.052 191.579 104.12 191.213C106.071 180.618 110.266 170.318 116.05 161.072C116.976 159.592 115.752 157.561 114.006 157.569C113.949 157.57 113.891 157.57 113.834 157.57C106.151 157.57 98.4907 155.205 91.6041 152.818C80.6847 149.031 68.1182 144.075 57.7215 136.034C50.3335 130.318 37.6121 118.577 35.4193 104.17C35.2464 103.035 35.0686 101.648 34.9409 100.133C34.7709 98.1155 31.8971 97.1642 30.7695 98.8464C15.6573 121.392 5.46362 147.497 1.68282 175.644C1.67332 175.715 1.70601 175.775 1.74694 175.834V175.834C11.3932 190.755 30.7141 196.122 44.408 198.862" fill="#6AD7E4"/>
<path d="M106.442 350.888C106.608 350.88 106.772 350.85 106.93 350.8C111.144 349.447 115.262 347.079 118.983 343.807C123.941 339.444 128.187 333.654 132.344 325.582C144.317 302.333 146.519 277.471 138.435 257.189C138.223 256.656 137.784 256.249 137.245 256.054C131.417 253.948 126.024 250.854 121.459 246.838C118.553 244.282 115.989 241.493 113.758 238.503C112.65 237.018 110.08 237.501 109.564 239.28C106.565 249.628 100.2 257.866 90.496 263.788C79.0403 270.778 64.0925 273.706 49.1674 273.706C38.0239 273.706 26.9152 272.06 17.2568 269.271C15.615 268.797 14.1031 270.418 14.779 271.988C28.468 303.773 50.9524 330.87 79.1682 350.248C79.4505 350.442 79.7779 350.559 80.1191 350.588C88.2562 351.279 97.1691 351.373 106.442 350.888Z" fill="#6AD7E4"/>
<path d="M123 128.678C145.091 128.678 163 111.357 163 89.9895C163 68.6224 145.091 51.301 123 51.301C100.909 51.301 83 68.6224 83 89.9895C83 111.357 100.909 128.678 123 128.678Z" fill="white" stroke="black" stroke-width="6" stroke-miterlimit="10" stroke-linecap="round" stroke-linejoin="round"/>
<path d="M102.016 105.726C109.622 105.726 115.787 99.5612 115.787 91.956C115.787 84.3508 109.622 78.1855 102.016 78.1855C94.4111 78.1855 88.2458 84.3508 88.2458 91.956C88.2458 99.5612 94.4111 105.726 102.016 105.726Z" fill="black"/>
<path d="M107.918 99.1691C110.091 99.1691 111.852 97.4076 111.852 95.2347C111.852 93.0618 110.091 91.3003 107.918 91.3003C105.745 91.3003 103.984 93.0618 103.984 95.2347C103.984 97.4076 105.745 99.1691 107.918 99.1691Z" fill="white"/>
<path d="M241 122.377C263.091 122.377 281 105.056 281 83.6885C281 62.3214 263.091 45 241 45C218.909 45 201 62.3214 201 83.6885C201 105.056 218.909 122.377 241 122.377Z" fill="white" stroke="black" stroke-width="6" stroke-miterlimit="10" stroke-linecap="round" stroke-linejoin="round"/>
<path d="M220.016 99.427C227.622 99.427 233.787 93.2617 233.787 85.6565C233.787 78.0512 227.622 71.886 220.016 71.886C212.411 71.886 206.246 78.0512 206.246 85.6565C206.246 93.2617 212.411 99.427 220.016 99.427Z" fill="black"/>
<path d="M225.918 92.8696C228.091 92.8696 229.852 91.1081 229.852 88.9352C229.852 86.7622 228.091 85.0007 225.918 85.0007C223.745 85.0007 221.984 86.7622 221.984 88.9352C221.984 91.1081 223.745 92.8696 225.918 92.8696Z" fill="white"/>
<path d="M180.1 169.652C171.443 169.803 170.145 173.665 162.692 174.996C162.429 179.594 162.094 185.887 161.758 193.377C161.036 209.513 181.507 205.9 181.507 196.267C181.507 188.938 181.507 175.624 181.507 169.669C181.057 169.652 180.594 169.644 180.1 169.652Z" fill="white" stroke="black" stroke-width="6" stroke-miterlimit="10" stroke-linecap="round" stroke-linejoin="round"/>
<path d="M181.507 196.266C181.507 205.899 201.978 209.512 201.255 193.376C200.911 185.684 200.567 179.255 200.301 174.629C190.917 174.201 189.772 169.962 181.507 169.668C181.507 175.623 181.507 188.937 181.507 196.266Z" fill="white" stroke="black" stroke-width="6" stroke-miterlimit="10" stroke-linecap="round" stroke-linejoin="round"/>
<path d="M211.976 153.56C208.48 149.799 204.332 147.749 198.79 146.759C195.849 151.067 188.522 154.12 179.941 154.12C171.69 154.12 164.599 151.296 161.45 147.248C155.517 148.386 151.212 150.608 147.683 154.682C140.757 162.677 144.121 174.664 153.427 175.309C157.407 175.586 160.35 175.415 162.692 174.996C170.145 173.665 171.443 169.802 180.1 169.651C180.594 169.643 181.057 169.651 181.507 169.668C189.771 169.961 190.916 174.2 200.301 174.628C202.157 174.712 204.334 174.649 206.955 174.374C216.234 173.405 219.177 161.308 211.976 153.56Z" fill="#D0B698" stroke="black" stroke-width="6" stroke-miterlimit="10" stroke-linecap="round" stroke-linejoin="round"/>
<path d="M179.942 154.12C188.522 154.12 195.848 151.067 198.791 146.759C199.679 145.457 200.173 144.042 200.173 142.56C200.173 136.176 191.117 131 179.943 131C168.771 131 159.713 136.176 159.713 142.56C159.713 144.23 160.337 145.815 161.452 147.248C164.599 151.296 171.691 154.12 179.942 154.12Z" fill="black"/>
</g>
<defs>
<clipPath id="clip0_102_2">
<rect width="365" height="352" rx="100" fill="white"/>
</clipPath>
</defs>
</svg>
